<?xml version="1.0" encoding="UTF-8" standalone="no"?>
<!-- Created with Inkscape (http://www.inkscape.org/) -->

<svg
   xmlns:dc="http://purl.org/dc/elements/1.1/"
   xmlns:cc="http://creativecommons.org/ns#"
   xmlns:rdf="http://www.w3.org/1999/02/22-rdf-syntax-ns#"
   xmlns:svg="http://www.w3.org/2000/svg"
   xmlns="http://www.w3.org/2000/svg"
   xmlns:sodipodi="http://sodipodi.sourceforge.net/DTD/sodipodi-0.dtd"
   xmlns:inkscape="http://www.inkscape.org/namespaces/inkscape"
   width="210mm"
   height="297mm"
   viewBox="0 0 744.09448819 1052.3622047"
   id="svg2"
   version="1.1"
   inkscape:version="0.91 r13725"
   sodipodi:docname="magnetposisjoner.svg">
  <defs
     id="defs4" />
  <sodipodi:namedview
     id="base"
     pagecolor="#ffffff"
     bordercolor="#666666"
     borderopacity="1.0"
     inkscape:pageopacity="0.0"
     inkscape:pageshadow="2"
     inkscape:zoom="1.0829972"
     inkscape:cx="377.64253"
     inkscape:cy="575.84621"
     inkscape:document-units="px"
     inkscape:current-layer="layer1"
     showgrid="false"
     inkscape:snap-bbox="true"
     inkscape:window-width="604"
     inkscape:window-height="617"
     inkscape:window-x="699"
     inkscape:window-y="42"
     inkscape:window-maximized="0" />
  <metadata
     id="metadata7">
    <rdf:RDF>
      <cc:Work
         rdf:about="">
        <dc:format>image/svg+xml</dc:format>
        <dc:type
           rdf:resource="http://purl.org/dc/dcmitype/StillImage" />
        <dc:title />
      </cc:Work>
    </rdf:RDF>
  </metadata>
  <g
     inkscape:label="Layer 1"
     inkscape:groupmode="layer"
     id="layer1">
    <circle
       style="fill:none;fill-rule:evenodd;stroke:#000000;stroke-width:0.93980992px;stroke-linecap:butt;stroke-linejoin:miter;stroke-opacity:1"
       id="path3336"
       cx="377.69769"
       cy="481.91919"
       r="212.12852" />
    <text
       xml:space="preserve"
       style="font-style:normal;font-weight:normal;font-size:40px;line-height:125%;font-family:sans-serif;letter-spacing:0px;word-spacing:0px;fill:#000000;fill-opacity:1;stroke:none;stroke-width:1px;stroke-linecap:butt;stroke-linejoin:miter;stroke-opacity:1;"
       x="140.21519"
       y="54.029953"
       id="text3338"
       sodipodi:linespacing="125%"><tspan
         sodipodi:role="line"
         id="tspan3340"
         x="140.21519"
         y="54.029953">Hjulet</tspan></text>
    <path
       inkscape:connector-curvature="0"
       id="path3446"
       d="m 376.79083,480.35169 -212.59843,0"
       style="fill:#000000;fill-rule:evenodd;stroke:#000000;stroke-width:0.92824572px;stroke-linecap:butt;stroke-linejoin:miter;stroke-opacity:1" />
    <circle
       style="fill:#000000"
       id="path3450"
       cx="-340.01068"
       cy="-480.51129"
       r="5.3149605"
       transform="scale(-1,-1)" />
    <circle
       style="fill:#000000"
       id="path3450-7"
       cx="-290.40436"
       cy="-480.51129"
       r="5.3149605"
       transform="scale(-1,-1)" />
    <circle
       style="fill:#ff0000"
       id="path3450-7-4"
       cx="-240.79807"
       cy="-480.51129"
       r="5.3149605"
       transform="scale(-1,-1)" />
    <circle
       style="fill:#ff0000"
       id="path3450-7-4-6"
       cx="-191.19177"
       cy="-480.51129"
       r="5.3149605"
       transform="scale(-1,-1)" />
    <path
       style="fill:#000000;fill-rule:evenodd;stroke:#000000;stroke-width:0.92824572px;stroke-linecap:butt;stroke-linejoin:miter;stroke-opacity:1"
       d="m 376.79083,480.67095 212.59843,0"
       id="path3446-4"
       inkscape:connector-curvature="0" />
    <circle
       style="fill:#ff0000"
       id="path3450-0"
       cx="413.57098"
       cy="480.51132"
       r="5.3149605" />
    <circle
       style="fill:#000000"
       id="path3450-7-3"
       cx="463.17728"
       cy="480.51132"
       r="5.3149605" />
    <circle
       style="fill:#000000"
       id="path3450-7-4-3"
       cx="512.78357"
       cy="480.51132"
       r="5.3149605" />
    <circle
       style="fill:#ff0000"
       id="path3450-7-4-6-4"
       cx="562.38989"
       cy="480.51132"
       r="5.3149605" />
    <path
       inkscape:connector-curvature="0"
       id="path3446-8"
       d="M 376.87064,480.37313 192.75499,374.07391"
       style="fill:#000000;fill-rule:evenodd;stroke:#000000;stroke-width:0.92824572px;stroke-linecap:butt;stroke-linejoin:miter;stroke-opacity:1" />
    <circle
       style="fill:#000000"
       id="path3450-73"
       cx="-529.78595"
       cy="-227.73962"
       r="5.3149605"
       transform="matrix(-0.8660254,-0.5,0.5,-0.8660254,0,0)" />
    <circle
       style="fill:#000000"
       id="path3450-7-6"
       cx="-480.17966"
       cy="-227.73962"
       r="5.3149605"
       transform="matrix(-0.8660254,-0.5,0.5,-0.8660254,0,0)" />
    <circle
       style="fill:#ff0000"
       id="path3450-7-4-5"
       cx="-430.57333"
       cy="-227.73962"
       r="5.3149605"
       transform="matrix(-0.8660254,-0.5,0.5,-0.8660254,0,0)" />
    <circle
       style="fill:#000000"
       id="path3450-7-4-6-0"
       cx="-380.96704"
       cy="-227.73962"
       r="5.3149605"
       transform="matrix(-0.8660254,-0.5,0.5,-0.8660254,0,0)" />
    <path
       style="fill:#000000;fill-rule:evenodd;stroke:#000000;stroke-width:0.92824572px;stroke-linecap:butt;stroke-linejoin:miter;stroke-opacity:1"
       d="M 376.71102,480.64955 560.82666,586.94877"
       id="path3446-4-4"
       inkscape:connector-curvature="0" />
    <circle
       style="fill:#ff0000"
       id="path3450-0-2"
       cx="603.34625"
       cy="227.73959"
       r="5.3149605"
       transform="matrix(0.8660254,0.5,-0.5,0.8660254,0,0)" />
    <circle
       style="fill:#000000"
       id="path3450-7-3-3"
       cx="652.95258"
       cy="227.73959"
       r="5.3149605"
       transform="matrix(0.8660254,0.5,-0.5,0.8660254,0,0)" />
    <circle
       style="fill:#000000"
       id="path3450-7-4-3-6"
       cx="702.55884"
       cy="227.73959"
       r="5.3149605"
       transform="matrix(0.8660254,0.5,-0.5,0.8660254,0,0)" />
    <circle
       style="fill:#000000"
       id="path3450-7-4-6-4-7"
       cx="752.16516"
       cy="227.73959"
       r="5.3149605"
       transform="matrix(0.8660254,0.5,-0.5,0.8660254,0,0)" />
    <path
       inkscape:connector-curvature="0"
       id="path3446-1"
       d="M 376.92902,480.43153 270.62981,296.31588"
       style="fill:#000000;fill-rule:evenodd;stroke:#000000;stroke-width:0.92824572px;stroke-linecap:butt;stroke-linejoin:miter;stroke-opacity:1" />
    <circle
       style="fill:#000000"
       id="path3450-06"
       cx="-567.75024"
       cy="86.054726"
       r="5.3149605"
       transform="matrix(-0.5,-0.8660254,0.8660254,-0.5,0,0)" />
    <circle
       style="fill:#000000"
       id="path3450-7-45"
       cx="-518.14392"
       cy="86.054726"
       r="5.3149605"
       transform="matrix(-0.5,-0.8660254,0.8660254,-0.5,0,0)" />
    <circle
       style="fill:#000000"
       id="path3450-7-4-53"
       cx="-468.53766"
       cy="86.054726"
       r="5.3149605"
       transform="matrix(-0.5,-0.8660254,0.8660254,-0.5,0,0)" />
    <circle
       style="fill:#ff0000"
       id="path3450-7-4-6-8"
       cx="-418.93137"
       cy="86.054726"
       r="5.3149605"
       transform="matrix(-0.5,-0.8660254,0.8660254,-0.5,0,0)" />
    <path
       style="fill:#000000;fill-rule:evenodd;stroke:#000000;stroke-width:0.92824572px;stroke-linecap:butt;stroke-linejoin:miter;stroke-opacity:1"
       d="M 376.65257,480.59114 482.95178,664.70678"
       id="path3446-4-2"
       inkscape:connector-curvature="0" />
    <circle
       style="fill:#000000"
       id="path3450-0-21"
       cx="641.31061"
       cy="-86.054749"
       r="5.3149605"
       transform="matrix(0.5,0.8660254,-0.8660254,0.5,0,0)" />
    <circle
       style="fill:#ff0000"
       id="path3450-7-3-1"
       cx="690.91687"
       cy="-86.054749"
       r="5.3149605"
       transform="matrix(0.5,0.8660254,-0.8660254,0.5,0,0)" />
    <circle
       style="fill:#ff0000"
       id="path3450-7-4-3-1"
       cx="740.52319"
       cy="-86.054749"
       r="5.3149605"
       transform="matrix(0.5,0.8660254,-0.8660254,0.5,0,0)" />
    <circle
       style="fill:#ff0000"
       id="path3450-7-4-6-4-0"
       cx="790.12946"
       cy="-86.054749"
       r="5.3149605"
       transform="matrix(0.5,0.8660254,-0.8660254,0.5,0,0)" />
    <path
       inkscape:connector-curvature="0"
       id="path3446-43"
       d="m 376.95041,480.51133 0,-212.59843"
       style="fill:#000000;fill-rule:evenodd;stroke:#000000;stroke-width:0.92824572px;stroke-linecap:butt;stroke-linejoin:miter;stroke-opacity:1" />
    <circle
       style="fill:#000000"
       id="path3450-8"
       cx="-443.73117"
       cy="376.7908"
       r="5.3149605"
       transform="matrix(0,-1,1,0,0,0)" />
    <circle
       style="fill:#000000"
       id="path3450-7-8"
       cx="-394.12488"
       cy="376.7908"
       r="5.3149605"
       transform="matrix(0,-1,1,0,0,0)" />
    <circle
       style="fill:#000000"
       id="path3450-7-4-52"
       cx="-344.51855"
       cy="376.7908"
       r="5.3149605"
       transform="matrix(0,-1,1,0,0,0)" />
    <circle
       style="fill:#000000"
       id="path3450-7-4-6-04"
       cx="-294.91226"
       cy="376.7908"
       r="5.3149605"
       transform="matrix(0,-1,1,0,0,0)" />
    <path
       style="fill:#000000;fill-rule:evenodd;stroke:#000000;stroke-width:0.92824572px;stroke-linecap:butt;stroke-linejoin:miter;stroke-opacity:1"
       d="m 376.63121,480.51132 0,212.59843"
       id="path3446-4-3"
       inkscape:connector-curvature="0" />
    <circle
       style="fill:#000000"
       id="path3450-0-5"
       cx="517.2915"
       cy="-376.7908"
       r="5.3149605"
       transform="matrix(0,1,-1,0,0,0)" />
    <circle
       style="fill:#ff0000"
       id="path3450-7-3-32"
       cx="566.89777"
       cy="-376.7908"
       r="5.3149605"
       transform="matrix(0,1,-1,0,0,0)" />
    <circle
       style="fill:#ff0000"
       id="path3450-7-4-3-0"
       cx="616.50409"
       cy="-376.7908"
       r="5.3149605"
       transform="matrix(0,1,-1,0,0,0)" />
    <circle
       style="fill:#000000"
       id="path3450-7-4-6-4-5"
       cx="666.11035"
       cy="-376.7908"
       r="5.3149605"
       transform="matrix(0,1,-1,0,0,0)" />
    <path
       inkscape:connector-curvature="0"
       id="path3446-3"
       d="M 376.92909,480.59114 483.22831,296.47549"
       style="fill:#000000;fill-rule:evenodd;stroke:#000000;stroke-width:0.92824572px;stroke-linecap:butt;stroke-linejoin:miter;stroke-opacity:1" />
    <circle
       style="fill:#ff0000"
       id="path3450-2"
       cx="-190.95943"
       cy="566.5661"
       r="5.3149605"
       transform="matrix(0.5,-0.8660254,0.8660254,0.5,0,0)" />
    <circle
       style="fill:#000000"
       id="path3450-7-84"
       cx="-141.35312"
       cy="566.5661"
       r="5.3149605"
       transform="matrix(0.5,-0.8660254,0.8660254,0.5,0,0)" />
    <circle
       style="fill:#ff0000"
       id="path3450-7-4-2"
       cx="-91.746826"
       cy="566.5661"
       r="5.3149605"
       transform="matrix(0.5,-0.8660254,0.8660254,0.5,0,0)" />
    <circle
       style="fill:#ff0000"
       id="path3450-7-4-6-01"
       cx="-42.140533"
       cy="566.5661"
       r="5.3149605"
       transform="matrix(0.5,-0.8660254,0.8660254,0.5,0,0)" />
    <path
       style="fill:#000000;fill-rule:evenodd;stroke:#000000;stroke-width:0.92824572px;stroke-linecap:butt;stroke-linejoin:miter;stroke-opacity:1"
       d="M 376.65265,480.43152 270.35343,664.54716"
       id="path3446-4-0"
       inkscape:connector-curvature="0" />
    <circle
       style="fill:#000000"
       id="path3450-0-0"
       cx="264.51974"
       cy="-566.5661"
       r="5.3149605"
       transform="matrix(-0.5,0.8660254,-0.8660254,-0.5,0,0)" />
    <circle
       style="fill:#ff0000"
       id="path3450-7-3-5"
       cx="314.12604"
       cy="-566.5661"
       r="5.3149605"
       transform="matrix(-0.5,0.8660254,-0.8660254,-0.5,0,0)" />
    <circle
       style="fill:#000000"
       id="path3450-7-4-3-5"
       cx="363.73236"
       cy="-566.5661"
       r="5.3149605"
       transform="matrix(-0.5,0.8660254,-0.8660254,-0.5,0,0)" />
    <circle
       style="fill:#ff0000"
       id="path3450-7-4-6-4-57"
       cx="413.33865"
       cy="-566.5661"
       r="5.3149605"
       transform="matrix(-0.5,0.8660254,-0.8660254,-0.5,0,0)" />
    <path
       inkscape:connector-curvature="0"
       id="path3446-6"
       d="M 376.71103,480.37309 192.59539,586.6723"
       style="fill:#000000;fill-rule:evenodd;stroke:#000000;stroke-width:0.92824572px;stroke-linecap:butt;stroke-linejoin:miter;stroke-opacity:1" />
    <circle
       style="fill:#000000"
       id="path3450-9"
       cx="-49.274609"
       cy="-604.5304"
       r="5.3149605"
       transform="matrix(-0.8660254,0.5,-0.5,-0.8660254,0,0)" />
    <circle
       style="fill:#ff0000"
       id="path3450-7-5"
       cx="0.33168986"
       cy="-604.5304"
       r="5.3149605"
       transform="matrix(-0.8660254,0.5,-0.5,-0.8660254,0,0)" />
    <circle
       style="fill:#000000"
       id="path3450-7-4-0"
       cx="49.937988"
       cy="-604.5304"
       r="5.3149605"
       transform="matrix(-0.8660254,0.5,-0.5,-0.8660254,0,0)" />
    <circle
       style="fill:#000000"
       id="path3450-7-4-6-1"
       cx="99.544281"
       cy="-604.5304"
       r="5.3149605"
       transform="matrix(-0.8660254,0.5,-0.5,-0.8660254,0,0)" />
    <path
       style="fill:#000000;fill-rule:evenodd;stroke:#000000;stroke-width:0.92824572px;stroke-linecap:butt;stroke-linejoin:miter;stroke-opacity:1"
       d="M 376.87064,480.64955 560.98628,374.35034"
       id="path3446-4-7"
       inkscape:connector-curvature="0" />
    <circle
       style="fill:#ff0000"
       id="path3450-0-08"
       cx="122.83493"
       cy="604.5304"
       r="5.3149605"
       transform="matrix(0.8660254,-0.5,0.5,0.8660254,0,0)" />
    <circle
       style="fill:#000000"
       id="path3450-7-3-4"
       cx="172.44122"
       cy="604.5304"
       r="5.3149605"
       transform="matrix(0.8660254,-0.5,0.5,0.8660254,0,0)" />
    <circle
       style="fill:#ff0000"
       id="path3450-7-4-3-9"
       cx="222.04753"
       cy="604.5304"
       r="5.3149605"
       transform="matrix(0.8660254,-0.5,0.5,0.8660254,0,0)" />
    <circle
       style="fill:#000000"
       id="path3450-7-4-6-4-75"
       cx="271.65381"
       cy="604.5304"
       r="5.3149605"
       transform="matrix(0.8660254,-0.5,0.5,0.8660254,0,0)" />
  </g>
</svg>
