<?xml version="1.0" encoding="utf-8"?>
<!-- Generator: Adobe Illustrator 14.0.0, SVG Export Plug-In  -->
<!DOCTYPE svg PUBLIC "-//W3C//DTD SVG 1.1//EN" "http://www.w3.org/Graphics/SVG/1.1/DTD/svg11.dtd" [
	<!ENTITY ns_flows "http://ns.adobe.com/Flows/1.0/">
]>
<svg version="1.1"
	 xmlns="http://www.w3.org/2000/svg" xmlns:xlink="http://www.w3.org/1999/xlink" xmlns:a="http://ns.adobe.com/AdobeSVGViewerExtensions/3.0/"
	 x="0px" y="0px" width="34px" height="36px" viewBox="-0.141 -0.728 34 36" enable-background="new -0.141 -0.728 34 36"
	 xml:space="preserve">
<defs>
</defs>
<path fill="#53565D" d="M2.561,25.621c-0.412-0.654-0.781-1.339-1.101-2.051C0.522,21.481,0,19.165,0,16.727
	C0,7.489,7.489,0,16.727,0c9.238,0,16.727,7.489,16.727,16.727c0,9.238-7.488,16.727-16.727,16.727
	c-2.534,0-4.936-0.564-7.087-1.573l-9.147,3.049L2.561,25.621z"/>
<polygon fill="#FFFFFF" points="17.025,9.587 7.505,16.301 10.803,16.301 11.854,24.044 15.545,24.044 15.545,18.054 18.508,18.054 
	18.508,24.044 22.141,24.044 23.191,16.301 26.489,16.301 "/>
</svg>
