<?xml version="1.0" encoding="utf-8"?>
<!-- Generator: Adobe Illustrator 14.0.0, SVG Export Plug-In  -->
<!DOCTYPE svg PUBLIC "-//W3C//DTD SVG 1.1//EN" "http://www.w3.org/Graphics/SVG/1.1/DTD/svg11.dtd" [
	<!ENTITY ns_flows "http://ns.adobe.com/Flows/1.0/">
]>
<svg version="1.1"
	 xmlns="http://www.w3.org/2000/svg" xmlns:xlink="http://www.w3.org/1999/xlink" xmlns:a="http://ns.adobe.com/AdobeSVGViewerExtensions/3.0/"
	 x="0px" y="0px" width="34px" height="36px" viewBox="-0.022 -0.728 34 36" enable-background="new -0.022 -0.728 34 36"
	 xml:space="preserve">
<defs>
</defs>
<path fill="#53565D" d="M2.56,25.621c-0.411-0.654-0.78-1.339-1.1-2.051C0.521,21.481,0,19.165,0,16.727C0,7.489,7.488,0,16.726,0
	c9.238,0,16.727,7.489,16.727,16.727c0,9.238-7.488,16.727-16.727,16.727c-2.533,0-4.935-0.564-7.087-1.573l-9.147,3.049
	L2.56,25.621z"/>
<path fill="#FFFFFF" d="M12.357,14.958c0,0.624,0.61,0.81,1.54,1.235c1.42,0.65,2.084,1.381,2.084,2.695
	c0,1.406-0.969,2.35-2.469,2.35h-0.531c-0.757,0-1.328-0.213-1.726-0.625c-0.438-0.451-0.611-0.836-0.611-0.969
	c0-0.026,0.026-0.066,0.08-0.093l1.155-0.571c0.026-0.013,0.039-0.013,0.065-0.013c0.094,0,0.12,0.133,0.253,0.397
	c0.146,0.279,0.478,0.479,0.783,0.479h0.531c0.518,0,0.955-0.425,0.955-0.955c0-0.664-0.558-0.903-1.42-1.314
	c-1.461-0.704-2.204-1.301-2.204-2.616c0-1.407,0.982-2.35,2.47-2.35h0.199c0.61,0,1.088,0.133,1.513,0.438
	c0.518,0.372,0.85,0.969,0.85,1.128c0,0.053-0.026,0.08-0.079,0.106l-1.155,0.571c-0.026,0.013-0.053,0.013-0.066,0.013
	c-0.066,0-0.093-0.08-0.173-0.199c-0.252-0.425-0.478-0.664-0.889-0.664h-0.199C12.795,14.003,12.357,14.414,12.357,14.958z"/>
<path fill="#FFFFFF" d="M22.588,20.985c0,0.079-0.053,0.12-0.146,0.12h-1.341c-0.079,0-0.119-0.027-0.133-0.094l-0.397-1.394
	c-0.014-0.066-0.054-0.079-0.133-0.079h-1.898c-0.08,0-0.12,0.013-0.133,0.079l-0.398,1.394c-0.013,0.066-0.066,0.094-0.133,0.094
	h-1.327c-0.093,0-0.146-0.041-0.146-0.12c0-0.013,0.014-0.026,0.014-0.053l2.469-8.098c0.026-0.066,0.054-0.093,0.133-0.093h0.956
	c0.066,0,0.106,0.026,0.133,0.093l2.469,8.098C22.574,20.959,22.588,20.973,22.588,20.985z M19.667,16.22
	c-0.013-0.08-0.066-0.318-0.146-0.73h-0.04c-0.093,0.412-0.146,0.65-0.159,0.73l-0.451,1.753c0,0.013-0.014,0.039-0.014,0.053
	c0,0.08,0.053,0.119,0.146,0.119h0.969c0.093,0,0.146-0.039,0.146-0.119c0-0.014-0.013-0.04-0.013-0.053L19.667,16.22z"/>
<path fill="#FFFFFF" d="M19.164,12.204l-0.093,0.04H18.09c-0.094,0-0.146-0.04-0.146-0.106c0-0.026,0.013-0.066,0.039-0.106
	l1.287-1.951l0.106-0.053h1.671c0.094,0,0.146,0.053,0.146,0.119c0,0.041-0.013,0.066-0.052,0.106L19.164,12.204z"/>
</svg>
