<?xml version="1.0" encoding="utf-8"?>
<!-- Generator: Adobe Illustrator 14.0.0, SVG Export Plug-In  -->
<!DOCTYPE svg PUBLIC "-//W3C//DTD SVG 1.1//EN" "http://www.w3.org/Graphics/SVG/1.1/DTD/svg11.dtd" [
	<!ENTITY ns_flows "http://ns.adobe.com/Flows/1.0/">
]>
<svg version="1.1"
	 xmlns="http://www.w3.org/2000/svg" xmlns:xlink="http://www.w3.org/1999/xlink" xmlns:a="http://ns.adobe.com/AdobeSVGViewerExtensions/3.0/"
	 x="0px" y="0px" width="35px" height="36px" viewBox="-0.79 -0.728 35 36" enable-background="new -0.79 -0.728 35 36"
	 xml:space="preserve">
<defs>
</defs>
<path fill="#53565D" d="M2.56,25.621c-0.412-0.654-0.781-1.339-1.1-2.051C0.521,21.481,0,19.165,0,16.727C0,7.489,7.488,0,16.726,0
	s16.726,7.489,16.726,16.727c0,9.238-7.488,16.727-16.726,16.727c-2.534,0-4.935-0.564-7.087-1.573l-9.147,3.049L2.56,25.621z"/>
<path fill="#FFFFFF" d="M15.699,21.105h-4.686c-0.093,0-0.133-0.041-0.133-0.133v-8.098c0-0.093,0.04-0.133,0.133-0.133h4.686
	c0.08,0,0.133,0.04,0.133,0.133v1.128c0,0.093-0.04,0.133-0.133,0.133H12.54c-0.093,0-0.133,0.04-0.133,0.132v1.766
	c0,0.093,0.04,0.133,0.133,0.133h2.589c0.093,0,0.133,0.04,0.133,0.133v1.128c0,0.093-0.04,0.133-0.133,0.133H12.54
	c-0.093,0-0.133,0.04-0.133,0.133v1.885c0,0.094,0.04,0.133,0.133,0.133h3.159c0.08,0,0.133,0.04,0.133,0.133v1.129
	C15.832,21.064,15.792,21.105,15.699,21.105z"/>
<path fill="#FFFFFF" d="M22.601,21.105h-1.102l-0.119-0.066l-2.722-5.337l0.066,5.271c0,0.092-0.04,0.133-0.133,0.133h-1.234
	c-0.093,0-0.133-0.041-0.133-0.133v-8.098c0-0.093,0.04-0.133,0.133-0.133h1.115l0.119,0.066l2.708,5.389l-0.053-5.323
	c0-0.093,0.039-0.133,0.133-0.133h1.221c0.08,0,0.133,0.04,0.133,0.133v8.098C22.733,21.064,22.693,21.105,22.601,21.105z"/>
</svg>
