<?xml version="1.0" encoding="utf-8"?>
<!-- Generator: Adobe Illustrator 14.0.0, SVG Export Plug-In  -->
<!DOCTYPE svg PUBLIC "-//W3C//DTD SVG 1.1//EN" "http://www.w3.org/Graphics/SVG/1.1/DTD/svg11.dtd" [
	<!ENTITY ns_flows "http://ns.adobe.com/Flows/1.0/">
]>
<svg version="1.1"
	 xmlns="http://www.w3.org/2000/svg" xmlns:xlink="http://www.w3.org/1999/xlink" xmlns:a="http://ns.adobe.com/AdobeSVGViewerExtensions/3.0/"
	 x="0px" y="0px" width="35px" height="36px" viewBox="-0.558 -0.728 35 36" enable-background="new -0.558 -0.728 35 36"
	 xml:space="preserve">
<defs>
</defs>
<path fill="#53565D" d="M2.561,25.621c-0.412-0.654-0.781-1.339-1.101-2.051C0.522,21.481,0,19.165,0,16.727
	C0,7.489,7.489,0,16.727,0c9.237,0,16.726,7.489,16.726,16.727c0,9.238-7.488,16.727-16.726,16.727
	c-2.534,0-4.936-0.564-7.087-1.573l-9.147,3.049L2.561,25.621z"/>
<path fill="#FFFFFF" d="M15.979,21.105h-1.102l-0.119-0.066l-2.722-5.337l0.066,5.271c0,0.092-0.04,0.133-0.133,0.133h-1.234
	c-0.093,0-0.133-0.041-0.133-0.133v-8.098c0-0.093,0.04-0.133,0.133-0.133h1.115l0.119,0.066l2.708,5.389l-0.053-5.323
	c0-0.093,0.039-0.133,0.133-0.133h1.221c0.08,0,0.133,0.04,0.133,0.133v8.098C16.112,21.064,16.072,21.105,15.979,21.105z"/>
<path fill="#FFFFFF" d="M20.743,21.238h-0.65c-1.5,0-2.471-0.943-2.471-2.35v-3.93c0-1.407,0.982-2.35,2.471-2.35h0.65
	c1.486,0,2.469,0.942,2.469,2.35v3.93C23.212,20.295,22.229,21.238,20.743,21.238z M21.685,14.958c0-0.544-0.41-0.956-0.941-0.956
	h-0.65c-0.531,0-0.957,0.425-0.957,0.956v3.93c0,0.53,0.426,0.955,0.957,0.955h0.65c0.531,0,0.941-0.412,0.941-0.955V14.958z"/>
</svg>
