<?xml version="1.0" encoding="utf-8"?>
<!-- Generator: Adobe Illustrator 14.0.0, SVG Export Plug-In  -->
<!DOCTYPE svg PUBLIC "-//W3C//DTD SVG 1.1//EN" "http://www.w3.org/Graphics/SVG/1.1/DTD/svg11.dtd" [
	<!ENTITY ns_flows "http://ns.adobe.com/Flows/1.0/">
]>
<svg version="1.1"
	 xmlns="http://www.w3.org/2000/svg" xmlns:xlink="http://www.w3.org/1999/xlink" xmlns:a="http://ns.adobe.com/AdobeSVGViewerExtensions/3.0/"
	 x="0px" y="0px" width="34px" height="36px" viewBox="-0.427 -0.728 34 36" enable-background="new -0.427 -0.728 34 36"
	 xml:space="preserve">
<defs>
</defs>
<path fill="#53565D" d="M2.561,25.621c-0.412-0.654-0.781-1.339-1.101-2.051C0.522,21.481,0,19.165,0,16.727
	C0,7.489,7.489,0,16.727,0s16.727,7.489,16.727,16.727c0,9.238-7.489,16.727-16.727,16.727c-2.534,0-4.936-0.564-7.088-1.573
	l-9.146,3.049L2.561,25.621z"/>
<path fill="#FFFFFF" d="M17.1,20.999c0,0.053-0.053,0.106-0.146,0.106H15.4l-0.106-0.066l-2.084-3.332
	c-0.04-0.054-0.08-0.08-0.106-0.08c-0.053,0-0.093,0.014-0.119,0.053l-0.531,0.704v2.589c0,0.092-0.04,0.133-0.133,0.133H11.06
	c-0.093,0-0.133-0.041-0.133-0.133v-8.098c0-0.093,0.04-0.133,0.133-0.133h1.261c0.08,0,0.133,0.04,0.133,0.133v2.947
	c0,0.093,0.053,0.16,0.119,0.16c0.04,0,0.08-0.027,0.12-0.08l2.362-3.106l0.106-0.053h1.526c0.094,0,0.146,0.04,0.146,0.106
	c0,0.027-0.014,0.066-0.04,0.106l-2.575,3.186c-0.014,0.026-0.026,0.053-0.026,0.066c0,0.026,0.013,0.053,0.026,0.08l2.854,4.62
	C17.086,20.933,17.1,20.973,17.1,20.999z"/>
<path fill="#FFFFFF" d="M21.214,21.012c-0.014,0.066-0.066,0.094-0.133,0.094h-0.956c-0.066,0-0.106-0.027-0.133-0.094l-2.469-8.098
	c0-0.013-0.014-0.04-0.014-0.053c0-0.08,0.054-0.12,0.146-0.12h1.327c0.08,0,0.12,0.026,0.133,0.093l1.514,5.39l1.446-5.39
	c0.014-0.066,0.054-0.093,0.133-0.093h1.341c0.094,0,0.146,0.04,0.146,0.12c0,0.013-0.014,0.04-0.014,0.053L21.214,21.012z"/>
</svg>
